<svg width="96" height="97" viewBox="0 0 96 97" fill="none" xmlns="http://www.w3.org/2000/svg">
<mask id="mask0" mask-type="alpha" maskUnits="userSpaceOnUse" x="0" y="0" width="96" height="97">
<path d="M48 96.0679C74.5097 96.0679 96 74.5775 96 48.0679C96 21.5582 74.5097 0.0678711 48 0.0678711C21.4903 0.0678711 0 21.5582 0 48.0679C0 74.5775 21.4903 96.0679 48 96.0679Z" fill="white"/>
</mask>
<g mask="url(#mask0)">
<path d="M48 96.0679C74.5097 96.0679 96 74.5775 96 48.0679C96 21.5582 74.5097 0.0678711 48 0.0678711C21.4903 0.0678711 0 21.5582 0 48.0679C0 74.5775 21.4903 96.0679 48 96.0679Z" fill="#0B0E11"/>
<path d="M79.0345 0.0678711H16.9681C7.06326 0.0678711 -0.887939 7.87267 -0.887939 17.5975V78.5383C-0.887939 88.2631 7.06326 96.0679 16.9681 96.0679H79.0321C88.7977 96.0679 96.8881 88.2631 96.8881 78.5383V17.5975C96.8881 7.87267 88.9393 0.0678711 79.0345 0.0678711ZM63.9721 24.0343C71.2249 24.0343 77.0833 29.7847 77.0833 36.9079C77.0833 39.0967 76.5241 41.1511 75.5473 43.0687C73.8745 41.8375 72.0625 40.7407 70.1089 40.0567C70.6657 39.0967 70.9465 38.0023 70.9465 36.9079C70.9465 33.2095 67.8769 30.1975 64.1113 30.1975C60.3433 30.1975 57.2761 33.2095 57.2761 36.9079C57.2761 38.0023 57.5545 39.0967 58.1137 40.0567C56.1601 40.7407 54.2065 41.7007 52.6729 43.0687C51.5569 41.1511 51.1369 39.0967 51.1369 36.9055C50.8609 29.7847 56.7193 24.0343 63.9721 24.0343ZM32.0281 72.1015C24.7777 72.1015 18.9193 66.3511 18.9193 59.2303H25.1953C25.1953 62.9263 28.2649 65.9407 32.0305 65.9407C35.7961 65.9407 38.8657 62.9263 38.8657 59.2303H45.1417C45.1417 66.3511 39.2809 72.1015 32.0281 72.1015ZM32.0281 54.0247C23.6617 54.0247 16.8265 47.3143 16.8265 39.0967C16.8265 30.8815 23.6617 24.0343 32.0305 24.0343C40.3993 24.0343 47.3737 30.7447 47.3737 39.0967C47.2345 47.3143 40.3969 54.0247 32.0281 54.0247ZM63.9721 72.1015C55.6033 72.1015 48.6289 65.3911 48.6289 57.1735C48.6289 48.8215 55.4641 42.1111 63.9721 42.1111C72.3409 42.1111 79.1761 48.8215 79.1761 57.1759C79.1761 65.3911 72.3409 72.1015 63.9721 72.1015ZM73.0369 57.0391C73.0369 61.9687 68.9929 65.8015 63.9721 65.8015C58.9513 65.8015 54.9049 61.8319 54.9049 57.0391C54.9049 52.1071 58.9513 48.1351 63.9721 48.1351C68.9929 48.2743 73.0369 52.2439 73.0369 57.0391ZM40.9561 39.0967C40.9561 44.0287 36.9121 48.0007 31.8913 48.0007C26.8681 48.0007 22.8241 44.0287 22.8241 39.0967C22.8241 34.1671 26.8681 30.1951 31.8913 30.1951C37.0513 30.1951 40.9561 34.1671 40.9561 39.0991V39.0967Z" fill="#D9B432"/>
</g>
</svg>
