<svg xmlns="http://www.w3.org/2000/svg" enable-background="new 0 0 1364 960" viewBox="0 0 1364 960"><path fill="#807EFF" d="M255.124,584.26H27.21V481.361l227.914-270.916h109.043v276.752h56.518v97.063h-56.518v84.163H255.124
	V584.26z M255.124,487.197V345.485L134.698,487.197H255.124z"/><rect width="23.454" height="97.063" x="397.23" y="487.197" fill="#6E6CE6"/><rect width="23.454" height="276.752" x="340.712" y="210.444" fill="#6E6CE6"/><polygon fill="#6E6CE6" points="134.698 487.197 255.124 348.82 255.124 321.22 111.243 487.197"/><rect width="23.454" height="84.163" x="340.712" y="584.26" fill="#6E6CE6"/><path fill="#807EFF" d="M1178.647,584.26H950.733V481.361l227.914-270.916h109.042v276.752h56.517v97.063h-56.517v84.163h-109.042
	V584.26z M1178.647,487.197V345.485l-120.427,141.712H1178.647z"/><rect width="23.455" height="97.063" x="1320.753" y="487.197" fill="#6E6CE6"/><rect width="23.455" height="276.752" x="1264.235" y="210.444" fill="#6E6CE6"/><polygon fill="#6E6CE6" points="1058.221 487.197 1178.647 348.82 1178.647 321.22 1034.766 487.197"/><rect width="23.455" height="84.163" x="1264.235" y="584.26" fill="#6E6CE6"/><path fill="#807EFF" d="M515.339,247.309c-99.469,92.295-105.639,247.948-13.751,346.978
	c91.886,99.03,247.566,104.512,347.036,12.218c99.471-92.296,105.637-247.949,13.751-346.979
	C770.486,160.495,614.81,155.014,515.339,247.309z M822.986,578.873c-84.302,78.22-215.772,73.593-293.647-10.337
	c-77.874-83.929-72.665-215.378,11.637-293.598s215.771-73.59,293.645,10.338C912.497,369.206,907.288,500.653,822.986,578.873z"/><rect width="68.165" height="67.866" x="823.435" y="582.157" fill="#807EFF" transform="rotate(-42.856 857.485 616.06)"/><path fill="#807EFF" d="M1083.179,859.295c-29.31,27.193-62.083,39.018-72.343,26.077c-9.089-11.451-77.909-98.187-84.893-107.002
	c-24.299-30.605-53.029-66.829-78.069-98.39c-4.028-5.076-3.467-12.394,1.283-16.802l55.949-51.908
	c4.749-4.406,12.086-4.418,16.848-0.025c29.597,27.31,63.577,58.708,92.276,85.199c7.982,7.386,90.077,83.167,100.353,92.657
	C1126.695,800.33,1112.489,832.102,1083.179,859.295z"/><polygon fill="#FFF" points="1003.025 686.104 916.453 766.419 903.822 750.498 988.083 672.3"/><polygon fill="#FFF" points="1029.171 710.249 938.584 794.314 925.943 778.371 1014.229 696.445"/><circle cx="1051.21" cy="819.908" r="22.038" fill="#FFF"/><path fill="#807EFF" d="M572.702,405.901c1.253,1.254,2.776,1.916,4.402,1.917c0,0,0,0,0.002,0c2.62,0,5.19-1.786,6.25-4.344
	c0.986-2.376,0.451-4.917-1.43-6.797l-24.685-24.684l23.119-23.119c1.881-1.88,2.415-4.42,1.431-6.796
	c-1.06-2.558-3.63-4.346-6.253-4.346c-1.627,0-3.148,0.663-4.402,1.917l-23.119,23.119l-23.119-23.119
	c-1.254-1.254-2.776-1.917-4.403-1.917c-2.621,0-5.192,1.787-6.251,4.346c-0.984,2.375-0.45,4.916,1.431,6.796l23.119,23.118
	l-24.685,24.685c-1.881,1.88-2.415,4.421-1.431,6.796c1.06,2.558,3.63,4.345,6.253,4.345c1.627,0,3.149-0.663,4.403-1.917
	l24.684-24.685L572.702,405.901z"/><path fill="#807EFF" d="M851.841,396.677l-24.684-24.684l23.119-23.119c1.879-1.88,2.414-4.421,1.431-6.796
	c-1.061-2.559-3.631-4.346-6.253-4.346c-1.627,0-3.149,0.663-4.403,1.917l-23.119,23.119l-23.119-23.119
	c-1.253-1.254-2.776-1.917-4.403-1.917c-2.622,0-5.192,1.787-6.252,4.346c-0.984,2.375-0.449,4.916,1.432,6.796l23.118,23.118
	l-24.684,24.685c-1.881,1.88-2.416,4.421-1.431,6.797c1.059,2.557,3.63,4.344,6.252,4.344c1.626,0,3.149-0.663,4.404-1.917
	l24.684-24.685l24.685,24.685c1.254,1.254,2.776,1.916,4.403,1.917c0,0,0,0,0.001,0c2.62,0,5.19-1.786,6.25-4.344
	C854.257,401.098,853.722,398.557,851.841,396.677z"/><path fill="#807EFF" d="M786.528,473.234l-0.001-0.008l-0.805-0.239c-5.083-1.509-10.432-2.916-15.896-4.178
	c-2.265-0.526-4.562-1.026-6.88-1.512l-0.006-0.008l-0.548-0.114c-2.161-0.45-4.356-0.884-6.555-1.293
	c-0.01-0.002-0.019-0.003-0.029-0.005l-0.526-0.099l-0.006,0.004c-7.403-1.371-15-2.541-22.592-3.473l-0.626-0.077l-0.005,0.005
	c-13.776-1.659-27.576-2.539-39.952-2.539c-54.75,0-111.417,12.162-141.006,30.261c-1.478,0.901-2.518,2.323-2.926,4.006
	c-0.408,1.684-0.135,3.427,0.769,4.905c1.186,1.946,3.257,3.108,5.538,3.108c1.19,0,2.359-0.329,3.382-0.953
	c27.306-16.696,82.508-28.356,134.243-28.356c11.179,0,23.608,0.759,36.04,2.185l-3.919,21.996
	c-2.798,15.713,7.706,30.771,23.412,33.567c1.686,0.301,3.401,0.453,5.1,0.453c14.038,0,26.015-10.034,28.476-23.858l3.684-20.678
	c17.312,5.401,29.98,11.767,36.662,18.456c1.222,1.223,2.852,1.897,4.588,1.897c1.737,0,3.366-0.674,4.592-1.899
	c2.516-2.527,2.516-6.639-0.003-9.168C822.087,486.983,807.209,479.454,786.528,473.234z M752.715,518.687
	c-0.982,0-1.974-0.088-2.948-0.261c-9.092-1.619-15.171-10.337-13.553-19.433l4.021-22.551c3.487,0.519,7.011,1.098,10.525,1.729
	l-3.417,19.186c-0.289,1.599,0.064,3.216,0.993,4.552c0.932,1.339,2.329,2.234,3.934,2.519c0.354,0.064,0.715,0.096,1.073,0.096
	c2.956,0,5.476-2.112,5.993-5.021l3.381-18.961c3.518,0.767,7.001,1.59,10.398,2.461l-3.899,21.868
	C767.786,512.877,760.846,518.687,752.715,518.687z"/><path fill="#807EFF" d="M19.793,779.524h92.003v23.721H54.199v17.658h53.428v22.66H54.199v21.902h59.264v25.161h-93.67V779.524z"/><path fill="#807EFF" d="M132.409,890.625V779.524h57.219c10.61,0,18.719,0.909,24.327,2.729c5.607,1.819,10.129,5.191,13.565,10.117
	c3.436,4.926,5.154,10.926,5.154,17.999c0,6.165-1.315,11.481-3.943,15.953c-2.628,4.471-6.244,8.097-10.843,10.875
	c-2.932,1.769-6.951,3.234-12.057,4.395c4.088,1.367,7.068,2.732,8.937,4.096c1.262,0.911,3.092,2.857,5.49,5.842
	c2.399,2.984,4.001,5.285,4.81,6.902l16.625,32.193H202.9l-18.35-33.952c-2.325-4.395-4.397-7.249-6.215-8.564
	c-2.476-1.717-5.28-2.577-8.413-2.577h-3.03v45.092H132.409z M166.892,824.541h14.474c1.565,0,4.597-0.504,9.094-1.516
	c2.273-0.455,4.13-1.616,5.57-3.486c1.44-1.868,2.16-4.016,2.16-6.441c0-3.587-1.137-6.34-3.411-8.261
	c-2.273-1.919-6.543-2.88-12.808-2.88h-15.08V824.541z"/><path fill="#807EFF" d="M253.135,890.625V779.524h57.217c10.61,0,18.719,0.909,24.327,2.729c5.608,1.819,10.129,5.191,13.566,10.117
	c3.435,4.926,5.154,10.926,5.154,17.999c0,6.165-1.315,11.481-3.945,15.953c-2.628,4.471-6.244,8.097-10.843,10.875
	c-2.932,1.769-6.95,3.234-12.056,4.395c4.088,1.367,7.067,2.732,8.936,4.096c1.262,0.911,3.092,2.857,5.492,5.842
	c2.397,2.984,4.001,5.285,4.808,6.902l16.625,32.193h-38.791l-18.35-33.952c-2.325-4.395-4.396-7.249-6.214-8.564
	c-2.476-1.717-5.28-2.577-8.413-2.577h-3.031v45.092H253.135z M287.617,824.541h14.475c1.566,0,4.597-0.504,9.095-1.516
	c2.273-0.455,4.13-1.616,5.569-3.486c1.44-1.868,2.16-4.016,2.16-6.441c0-3.587-1.137-6.34-3.41-8.261
	c-2.273-1.919-6.543-2.88-12.808-2.88h-15.081V824.541z"/><path fill="#807EFF" d="M366.434,835.15c0-18.137,5.052-32.258,15.158-42.364c10.103-10.105,24.176-15.157,42.212-15.157
	c18.491,0,32.738,4.964,42.743,14.892c10.003,9.928,15.005,23.834,15.005,41.72c0,12.986-2.186,23.633-6.556,31.944
	c-4.371,8.311-10.686,14.778-18.946,19.401c-8.261,4.623-18.555,6.935-30.883,6.935c-12.531,0-22.9-1.996-31.11-5.987
	c-8.211-3.991-14.867-10.307-19.97-18.946C368.984,858.947,366.434,848.136,366.434,835.15z M400.764,835.302
	c0,11.216,2.084,19.275,6.252,24.176c4.168,4.901,9.839,7.351,17.014,7.351c7.375,0,13.084-2.399,17.127-7.2
	c4.042-4.799,6.063-13.414,6.063-25.843c0-10.459-2.11-18.099-6.328-22.925c-4.218-4.824-9.941-7.238-17.165-7.238
	c-6.923,0-12.48,2.451-16.673,7.351C402.861,815.876,400.764,823.985,400.764,835.302z"/><path fill="#807EFF" d="M500.498,890.625V779.524h57.217c10.611,0,18.72,0.909,24.328,2.729c5.608,1.819,10.129,5.191,13.565,10.117
	c3.436,4.926,5.154,10.926,5.154,17.999c0,6.165-1.315,11.481-3.943,15.953c-2.628,4.471-6.244,8.097-10.843,10.875
	c-2.932,1.769-6.951,3.234-12.057,4.395c4.089,1.367,7.068,2.732,8.937,4.096c1.262,0.911,3.092,2.857,5.49,5.842
	c2.397,2.984,4.001,5.285,4.808,6.902l16.626,32.193h-38.791l-18.351-33.952c-2.324-4.395-4.394-7.249-6.214-8.564
	c-2.476-1.717-5.28-2.577-8.411-2.577h-3.033v45.092H500.498z M534.979,824.541h14.475c1.565,0,4.597-0.504,9.095-1.516
	c2.273-0.455,4.13-1.616,5.57-3.486c1.44-1.868,2.16-4.016,2.16-6.441c0-3.587-1.138-6.34-3.411-8.261
	c-2.273-1.919-6.544-2.88-12.807-2.88h-15.083V824.541z"/><path fill="#D4D4FF" d="M996.962,280.151c-1.586-0.256-3.007-1.133-3.972-2.494c-1.273-1.798-1.485-4.067-0.565-6.069l8.885-19.326
	c0.92-2.002,2.78-3.319,4.974-3.523c2.193-0.202,4.264,0.749,5.537,2.546l12.294,17.357c1.274,1.798,1.484,4.067,0.564,6.069
	c-0.92,2.001-2.78,3.318-4.973,3.522l-21.179,1.969C997.995,280.251,997.47,280.233,996.962,280.151z M1007.067,253.536
	c-0.14-0.023-0.26-0.019-0.339-0.012c-0.223,0.02-0.772,0.135-1.052,0.746l-8.885,19.326c-0.28,0.611-0.01,1.102,0.12,1.284
	c0.128,0.182,0.5,0.599,1.171,0.538l21.18-1.969c0.67-0.062,0.959-0.542,1.052-0.745c0.094-0.203,0.269-0.735-0.119-1.284
	l-12.294-17.357C1007.648,253.708,1007.325,253.578,1007.067,253.536z"/><path fill="#D4D4FF" d="M1089.531,660.362c-0.395-1.557-0.157-3.21,0.709-4.636c1.143-1.883,3.141-2.979,5.344-2.932l21.266,0.468
	c2.203,0.049,4.151,1.231,5.21,3.163c1.057,1.931,1.008,4.211-0.135,6.093l-11.038,18.182c-1.143,1.884-3.142,2.979-5.344,2.931
	c-2.203-0.049-4.15-1.231-5.209-3.163l-10.227-18.65C1089.85,661.349,1089.658,660.861,1089.531,660.362z M1117.97,659.052
	c-0.035-0.137-0.086-0.247-0.124-0.315c-0.108-0.196-0.431-0.655-1.102-0.669l-21.265-0.469c-0.672-0.014-1.015,0.429-1.131,0.62
	c-0.116,0.19-0.351,0.697-0.028,1.288l10.228,18.651c0.323,0.59,0.879,0.665,1.102,0.669c0.224,0.005,0.782-0.046,1.131-0.619
	l11.038-18.182C1118.044,659.653,1118.034,659.305,1117.97,659.052z"/><path fill="#D4D4FF" d="M719.176,786.878c-1.586-0.256-3.008-1.132-3.972-2.494c-1.273-1.798-1.485-4.066-0.565-6.069l8.885-19.326
	c0.921-2.002,2.78-3.319,4.974-3.523c2.193-0.202,4.264,0.749,5.537,2.546l12.294,17.357c1.274,1.798,1.485,4.067,0.564,6.069
	c-0.92,2.002-2.78,3.318-4.974,3.522l-21.179,1.969C720.208,786.978,719.684,786.96,719.176,786.878z M729.281,760.263
	c-0.14-0.023-0.26-0.019-0.339-0.012c-0.223,0.021-0.772,0.135-1.052,0.746l-8.885,19.326c-0.28,0.611-0.01,1.102,0.12,1.284
	c0.128,0.183,0.5,0.6,1.171,0.538l21.18-1.969c0.67-0.062,0.959-0.542,1.052-0.745c0.094-0.203,0.269-0.735-0.119-1.284
	l-12.294-17.357C729.862,760.434,729.539,760.305,729.281,760.263z"/><path fill="#D4D4FF" d="M149.685,188.304c-1.102,1.17-2.624,1.855-4.292,1.89c-2.203,0.046-4.199-1.051-5.342-2.936l-11.019-18.194
	c-1.142-1.885-1.189-4.163-0.128-6.094c1.062-1.929,3.012-3.111,5.213-3.157l21.266-0.445c2.204-0.047,4.2,1.052,5.341,2.936
	c1.141,1.885,1.188,4.162,0.127,6.093l-10.246,18.639C150.347,187.506,150.038,187.93,149.685,188.304z M133.316,165.012
	c-0.097,0.103-0.162,0.205-0.2,0.273c-0.108,0.196-0.321,0.715,0.027,1.289l11.018,18.194c0.348,0.575,0.907,0.626,1.13,0.621
	c0.223-0.004,0.777-0.078,1.102-0.667l10.247-18.64c0.324-0.589,0.089-1.098-0.027-1.289c-0.116-0.192-0.458-0.635-1.13-0.622
	l-21.265,0.446C133.783,164.628,133.495,164.822,133.316,165.012z"/><path fill="#D4D4FF" d="M99.653,666.619c-1.586-0.256-3.008-1.132-3.972-2.494c-1.273-1.798-1.485-4.066-0.565-6.069l8.885-19.326
	c0.921-2.002,2.78-3.319,4.974-3.523c2.193-0.202,4.264,0.749,5.537,2.546l12.294,17.357c1.274,1.798,1.485,4.067,0.564,6.069
	c-0.92,2.002-2.78,3.318-4.973,3.522l-21.179,1.969C100.685,666.719,100.16,666.701,99.653,666.619z M109.758,640.004
	c-0.14-0.023-0.26-0.019-0.338-0.012c-0.223,0.02-0.772,0.135-1.052,0.746l-8.885,19.325c-0.28,0.611-0.01,1.102,0.119,1.284
	c0.128,0.182,0.5,0.599,1.171,0.538l21.18-1.969c0.67-0.062,0.959-0.542,1.052-0.745c0.094-0.203,0.269-0.736-0.119-1.284
	l-12.294-17.357C110.338,640.175,110.015,640.045,109.758,640.004z"/><circle cx="900.029" cy="212.902" r="11.517" fill="#FBCFFC" transform="rotate(-76.714 900.101 212.892)"/><circle cx="1320.753" cy="432.67" r="11.517" fill="#FBCFFC" transform="rotate(-76.714 1320.86 432.665)"/><circle cx="865.274" cy="812.092" r="11.517" fill="#FBCFFC"/><circle cx="1252.718" cy="755.439" r="11.517" fill="#FBCFFC" transform="rotate(-80.781 1252.733 755.42)"/><circle cx="453.395" cy="676.674" r="11.517" fill="#FBCFFC" transform="rotate(-76.714 453.448 676.71)"/><circle cx="269.573" cy="725.256" r="11.517" fill="#FBCFFC" transform="rotate(-45.001 269.565 725.262)"/><circle cx="436.51" cy="201.318" r="11.517" fill="#FBCFFC" transform="rotate(-76.714 436.548 201.32)"/><circle cx="50.7" cy="286.975" r="11.517" fill="#FBCFFC" transform="rotate(-45.001 50.697 286.977)"/><circle cx="1120.134" cy="154.627" r="11.517" fill="#FBCFFC" transform="rotate(-22.5 1120.086 154.624)"/><path fill="#807EFF" d="M543.442,100.815c0-10.511,2.928-18.696,8.784-24.552c5.856-5.856,14.01-8.784,24.464-8.784
	c10.716,0,18.973,2.876,24.771,8.63c5.798,5.753,8.696,13.812,8.696,24.177c0,7.525-1.267,13.696-3.798,18.512
	c-2.533,4.817-6.193,8.565-10.98,11.243c-4.788,2.679-10.754,4.019-17.898,4.019c-7.261,0-13.271-1.157-18.029-3.47
	c-4.758-2.312-8.615-5.974-11.573-10.98C544.919,114.605,543.442,108.341,543.442,100.815z M563.338,100.902
	c0,6.501,1.208,11.172,3.623,14.012c2.417,2.84,5.702,4.259,9.86,4.259c4.276,0,7.584-1.389,9.925-4.173
	c2.344-2.78,3.514-7.773,3.514-14.976c0-6.06-1.222-10.489-3.667-13.286c-2.445-2.795-5.76-4.194-9.948-4.194
	c-4.012,0-7.232,1.421-9.662,4.259C564.551,89.645,563.338,94.344,563.338,100.902z"/><path fill="#807EFF" d="M617.49,109.775c0-7.115,2.4-12.979,7.202-17.591c4.802-4.611,11.288-6.917,19.456-6.917
	c9.341,0,16.397,2.709,21.17,8.126c3.834,4.362,5.753,9.735,5.753,16.118c0,7.174-2.379,13.052-7.136,17.633
	c-4.759,4.583-11.339,6.874-19.742,6.874c-7.496,0-13.557-1.902-18.183-5.71C620.328,123.594,617.49,117.416,617.49,109.775z
	 M635.409,109.73c0,4.158,0.841,7.233,2.525,9.223c1.683,1.992,3.798,2.986,6.346,2.986c2.576,0,4.691-0.981,6.346-2.943
	c1.653-1.96,2.482-5.109,2.482-9.443c0-4.04-0.835-7.048-2.504-9.025c-1.668-1.977-3.733-2.965-6.193-2.965
	c-2.606,0-4.759,1.003-6.457,3.01C636.257,102.579,635.409,105.632,635.409,109.73z"/><path fill="#807EFF" d="M679.769,150.707V86.32h16.732v6.896c2.314-2.9,4.437-4.86,6.369-5.886c2.606-1.376,5.491-2.065,8.652-2.065
	c6.236,0,11.06,2.387,14.471,7.159c3.411,4.773,5.118,10.674,5.118,17.7c0,7.759-1.86,13.681-5.578,17.766
	c-3.72,4.085-8.419,6.127-14.098,6.127c-2.752,0-5.264-0.468-7.533-1.406c-2.269-0.936-4.296-2.327-6.082-4.171v22.266H679.769z
	 M697.688,109.775c0,3.688,0.775,6.427,2.327,8.213c1.552,1.786,3.514,2.679,5.885,2.679c2.078,0,3.821-0.857,5.227-2.57
	c1.406-1.713,2.108-4.618,2.108-8.718c0-3.776-0.732-6.551-2.196-8.322c-1.464-1.772-3.25-2.658-5.358-2.658
	c-2.284,0-4.188,0.894-5.71,2.679C698.448,102.865,697.688,105.763,697.688,109.775z"/><path fill="#807EFF" d="M736.513,120.007l17.743-1.67c0.731,2.11,1.756,3.617,3.074,4.525c1.318,0.908,3.074,1.361,5.27,1.361
	c2.402,0,4.261-0.511,5.578-1.534c1.024-0.76,1.537-1.71,1.537-2.85c0-1.286-0.674-2.281-2.02-2.983
	c-0.966-0.496-3.529-1.111-7.686-1.841c-6.208-1.082-10.519-2.084-12.934-3.005c-2.415-0.921-4.451-2.479-6.105-4.672
	c-1.655-2.194-2.482-4.696-2.482-7.503c0-3.073,0.893-5.719,2.679-7.943c1.786-2.223,4.246-3.882,7.379-4.979
	c3.132-1.096,7.335-1.646,12.604-1.646c5.563,0,9.669,0.425,12.32,1.275c2.649,0.85,4.86,2.166,6.632,3.952
	c1.771,1.786,3.242,4.202,4.413,7.247l-16.953,1.67c-0.438-1.494-1.17-2.591-2.196-3.295c-1.404-0.936-3.104-1.406-5.094-1.406
	c-2.02,0-3.491,0.359-4.414,1.075c-0.923,0.717-1.384,1.586-1.384,2.61c0,1.14,0.586,2.002,1.756,2.586
	c1.172,0.584,3.72,1.111,7.643,1.579c5.944,0.672,10.365,1.609,13.264,2.809c2.898,1.199,5.116,2.91,6.653,5.133
	c1.537,2.224,2.306,4.666,2.306,7.327c0,2.691-0.812,5.31-2.437,7.853c-1.625,2.545-4.188,4.571-7.687,6.078
	c-3.499,1.506-8.265,2.259-14.295,2.259c-8.521,0-14.589-1.215-18.205-3.645C739.857,127.943,737.537,124.487,736.513,120.007z"/><path fill="#807EFF" d="M794.662,115.045h19.106v17.919h-19.106V115.045z"/><path fill="#807EFF" d="M824.615,115.045h19.106v17.919h-19.106V115.045z"/><path fill="#807EFF" d="M854.568,115.045h19.106v17.919h-19.106V115.045z"/></svg>